<svg width="2413" height="1221" viewBox="0 0 2413 1221" fill="none" xmlns="http://www.w3.org/2000/svg">
<path d="M0 434.195H613.703C1150.78 434.195 1308.87 611.168 1882.77 611.168" stroke="url(#paint0_linear_2066_954)" stroke-width="171.283"/>
<path d="M0 789.164H624.315C936.232 789.164 1028.05 612.191 1361.35 612.191H2119.06" stroke="url(#paint1_linear_2066_954)" stroke-width="171.283"/>
<path d="M0 611.025H2412.53" stroke="url(#paint2_linear_2066_954)" stroke-width="171.283"/>
<rect x="561.594" y="578.418" width="19.3858" height="67.5472" rx="9.6929" fill="#646464"/>
<rect x="287.469" y="578.418" width="19.3858" height="67.5471" rx="9.6929" fill="#A2A792"/>
<rect x="150.406" y="578.418" width="19.3858" height="67.5471" rx="9.6929" fill="#A2A792"/>
<rect x="978.07" y="570.713" width="29.9823" height="82.9567" rx="14.9911" fill="#7F807E"/>
<rect x="978.07" y="431.67" width="29.9823" height="82.9567" rx="14.9911" fill="#7F807E"/>
<rect x="13.3516" y="578.418" width="19.3858" height="67.5471" rx="9.6929" fill="#A2A792"/>
<rect x="846.312" y="578.418" width="19.3858" height="67.5471" rx="9.6929" fill="#646464"/>
<rect x="703.953" y="578.418" width="19.3858" height="67.5471" rx="9.6929" fill="#646464"/>
<rect x="424.531" y="578.418" width="19.3858" height="67.5472" rx="9.6929" fill="#A2A792"/>
<rect x="561.594" y="397.896" width="19.3858" height="67.5472" rx="9.6929" fill="#646464"/>
<rect x="287.469" y="397.896" width="19.3858" height="67.5471" rx="9.6929" fill="#A2A792"/>
<rect x="150.406" y="397.896" width="19.3858" height="67.5471" rx="9.6929" fill="#A2A792"/>
<rect x="13.3516" y="397.896" width="19.3858" height="67.5471" rx="9.6929" fill="#A2A792"/>
<rect x="703.953" y="397.896" width="19.3858" height="67.5471" rx="9.6929" fill="#646464"/>
<rect x="424.531" y="397.896" width="19.3858" height="67.5472" rx="9.6929" fill="#A2A792"/>
<rect x="846.312" y="419.562" width="19.3858" height="67.5471" rx="9.6929" fill="#646464"/>
<rect x="561.594" y="755.393" width="19.3858" height="67.5472" rx="9.6929" fill="#646464"/>
<rect x="287.469" y="755.393" width="19.3858" height="67.5471" rx="9.6929" fill="#A2A792"/>
<rect x="150.406" y="755.393" width="19.3858" height="67.5471" rx="9.6929" fill="#A2A792"/>
<rect x="13.3516" y="755.393" width="19.3858" height="67.5471" rx="9.6929" fill="#A2A792"/>
<rect x="703.953" y="755.393" width="19.3858" height="67.5471" rx="9.6929" fill="#646464"/>
<rect x="424.531" y="755.393" width="19.3858" height="67.5472" rx="9.6929" fill="#A2A792"/>
<rect x="846.312" y="721.617" width="19.3858" height="67.5471" rx="9.6929" fill="#646464"/>
<rect x="978.07" y="655.248" width="29.9823" height="80.6254" rx="14.9911" fill="#7F807E"/>
<rect x="1109.29" y="562.111" width="41.6667" height="100.161" rx="20.8334" fill="#A2A792"/>
<rect x="1109.29" y="595.885" width="41.6667" height="100.161" rx="20.8334" fill="#A2A792"/>
<rect x="1109.29" y="451.264" width="41.6667" height="100.161" rx="20.8334" fill="#A2A792"/>
<rect x="1246.35" y="562.111" width="41.6667" height="100.161" rx="20.8334" fill="#A2A792"/>
<rect x="1246.35" y="482.877" width="41.6667" height="100.161" rx="20.8334" fill="#A2A792"/>
<rect x="1383.41" y="562.111" width="41.6667" height="100.161" rx="20.8334" fill="#A2A792"/>
<rect x="1383.41" y="509.699" width="41.6667" height="100.161" rx="20.8334" fill="#A2A792"/>
<rect x="1521.3" y="551.426" width="50.6124" height="124.296" rx="25.3062" fill="#A2A792"/>
<rect x="1521.3" y="532.955" width="50.6124" height="124.296" rx="25.3062" fill="#A2A792"/>
<rect x="1640.86" y="551.426" width="80.7765" height="124.296" rx="27.2849" fill="#C9D8AE"/>
<rect x="1769.33" y="551.426" width="89.5925" height="124.296" rx="27.2849" fill="#C9D8AE"/>
<rect x="1883.85" y="545.33" width="244.642" height="136.487" rx="27.2849" fill="#F1FFC6"/>
<rect x="2153.43" y="545.33" width="244.642" height="136.487" rx="27.2849" fill="#F1FFC6"/>
<defs>
<linearGradient id="paint0_linear_2066_954" x1="399.08" y1="109.612" x2="1666.73" y2="628.073" gradientUnits="userSpaceOnUse">
<stop offset="0.472429" stop-color="#1F2528"/>
<stop offset="0.723007" stop-color="#63B6B4"/>
<stop offset="0.905429" stop-color="#487B50"/>
</linearGradient>
<linearGradient id="paint1_linear_2066_954" x1="712.199" y1="789.164" x2="1230.03" y2="651.949" gradientUnits="userSpaceOnUse">
<stop offset="0.427885" stop-color="#1F2528"/>
<stop offset="1" stop-color="#789BB0"/>
</linearGradient>
<linearGradient id="paint2_linear_2066_954" x1="920.298" y1="898.763" x2="1716.39" y2="654.369" gradientUnits="userSpaceOnUse">
<stop offset="0.427885" stop-color="#1F2528"/>
<stop offset="0.750551" stop-color="#895C29"/>
<stop offset="0.836426" stop-color="#937A38"/>
<stop offset="1" stop-color="#97883F"/>
</linearGradient>
</defs>
</svg>
