<svg width="2385" height="284" viewBox="0 0 2385 284" fill="none" xmlns="http://www.w3.org/2000/svg">
<rect x="964.719" y="33.7734" width="29.9823" height="82.9567" rx="14.9911" fill="#7F807E"/>
<rect x="548.242" width="19.3858" height="67.5472" rx="9.6929" fill="#646464"/>
<rect x="274.117" width="19.3858" height="67.5471" rx="9.6929" fill="#A2A792"/>
<rect x="137.055" width="19.3858" height="67.5471" rx="9.6929" fill="#A2A792"/>
<rect width="19.3858" height="67.5471" rx="9.6929" fill="#A2A792"/>
<rect x="690.602" width="19.3858" height="67.5471" rx="9.6929" fill="#646464"/>
<rect x="411.18" width="19.3858" height="67.5472" rx="9.6929" fill="#A2A792"/>
<rect x="832.961" y="21.666" width="19.3858" height="67.5471" rx="9.6929" fill="#646464"/>
<rect x="1095.94" y="53.3672" width="41.6667" height="100.161" rx="20.8334" fill="#A2A792"/>
<rect x="1233" y="84.9805" width="41.6667" height="100.161" rx="20.8334" fill="#A2A792"/>
<rect x="1370.06" y="111.803" width="41.6667" height="100.161" rx="20.8334" fill="#A2A792"/>
<rect x="1507.95" y="135.059" width="50.6124" height="124.296" rx="25.3062" fill="#A2A792"/>
<rect x="1627.51" y="153.529" width="80.7765" height="124.296" rx="27.2849" fill="#C9D8AE"/>
<rect x="1755.98" y="153.529" width="89.5925" height="124.296" rx="27.2849" fill="#C9D8AE"/>
<rect x="1870.5" y="147.434" width="244.642" height="136.487" rx="27.2849" fill="#F1FFC6"/>
<rect x="2140.08" y="147.434" width="244.642" height="136.487" rx="27.2849" fill="#F1FFC6"/>
</svg>
